<svg width="50" height="50" viewBox="0 0 10 10"
    xmlns="http://www.w3.org/2000/svg">
    <path d="M9.82997 4.99999C9.82997 6.08755 9.47056 7.09117 8.864 7.89852C7.98273 9.07156 6.69214 9.62934 5.11201 9.62934C2.44429 9.62934 0.394043 7.66771 0.394043 4.99999C0.394043 3.45233 0.89721 2.07466 2.02934 1.19063C2.84861 0.550877 3.87961 0.169678 4.99965 0.169678C7.66737 0.169678 9.82997 2.33228 9.82997 4.99999Z" fill="#E3E0E4"/>
    <path d="M9.02622 7.66911C8.16106 8.97182 6.68075 9.83042 4.99975 9.83042C2.3321 9.83042 0.169434 7.66775 0.169434 5.0001C0.169434 3.31911 1.02803 1.83879 2.33075 0.973633C1.82283 1.73811 1.5269 2.65576 1.5269 3.64264C1.5269 6.31029 3.68957 8.47295 6.35722 8.47295C7.34409 8.47295 8.26174 8.17703 9.02622 7.66911Z" fill="#D4CFD5"/>
    <path d="M3.59688 4.27599C3.59688 4.3947 3.57283 4.50778 3.52932 4.61063C3.3988 4.9192 3.09711 5.01128 2.741 5.01128C2.26618 5.01128 2.04541 4.78474 2.04541 4.30993C2.04541 3.95517 2.09227 3.61669 2.39894 3.48533C2.50276 3.44088 2.61708 3.41626 2.73715 3.41626C3.21197 3.41626 3.59688 3.80117 3.59688 4.27599Z" fill="#D4CFD5"/>
    <path d="M5.73508 7.88465C5.73508 8.08117 5.66915 8.26228 5.5582 8.40707C5.40108 8.61214 5.15366 8.59346 4.87535 8.59346C4.40053 8.59346 4.01562 8.35945 4.01562 7.88463C4.01562 7.40981 4.40053 7.0249 4.87535 7.0249C5.35017 7.0249 5.73508 7.40983 5.73508 7.88465Z" fill="#D4CFD5"/>
    <path d="M5.55816 8.4071C5.40115 8.6123 5.15363 8.74443 4.87535 8.74443C4.40047 8.74443 4.01563 8.35958 4.01563 7.8847C4.01563 7.87927 4.01562 7.87384 4.01585 7.86841C4.48712 8.13017 5.0068 8.31547 5.55816 8.4071Z" fill="#C5BEC6"/>
    <path d="M7.77121 3.11094C7.77121 3.21105 7.74293 3.30456 7.69395 3.38392C7.60229 3.53239 7.45281 3.59497 7.26553 3.59497C6.97813 3.59497 6.78223 3.40309 6.78223 3.11569C6.78223 2.90773 6.85248 2.72349 7.02881 2.64019C7.09616 2.60838 7.17141 2.59058 7.25085 2.59058C7.53825 2.59058 7.77121 2.82354 7.77121 3.11094Z" fill="#D4CFD5"/>
    <path d="M8.15592 7.09285C8.15592 7.16151 8.14262 7.22708 8.11845 7.2871C8.04149 7.47828 7.85427 7.51527 7.63556 7.51527C7.34816 7.51527 7.26562 7.385 7.26562 7.09762C7.26562 6.84615 7.29357 6.6316 7.53069 6.58307C7.56456 6.57615 7.59963 6.57251 7.63556 6.57251C7.92296 6.57249 8.15592 6.80545 8.15592 7.09285Z" fill="#D4CFD5"/>
    <path d="M3.52789 4.61407C3.39667 4.92063 3.09192 5.13556 2.73717 5.13556C2.26228 5.13556 1.87744 4.75072 1.87744 4.27583C1.87744 3.92108 2.09237 3.61633 2.39893 3.48511C2.35459 3.58895 2.32993 3.70321 2.32993 3.82334C2.32993 4.29823 2.71477 4.68307 3.18966 4.68307C3.30979 4.68307 3.42405 4.65841 3.52789 4.61407Z" fill="#C5BEC6"/>
    <path d="M7.73341 3.30508C7.65671 3.49625 7.46961 3.63132 7.25083 3.63132C6.9635 3.63132 6.73047 3.39829 6.73047 3.11096C6.73047 2.85711 6.91237 2.64557 7.15287 2.6001C7.12843 2.66005 7.11508 2.72566 7.11508 2.79422C7.11508 3.08155 7.34812 3.31458 7.63545 3.31458C7.66893 3.31458 7.70174 3.31141 7.73341 3.30508Z" fill="#C5BEC6"/>
    <path d="M8.11818 7.28701C8.04148 7.47818 7.85437 7.61325 7.6356 7.61325C7.34827 7.61325 7.11523 7.38022 7.11523 7.09289C7.11523 6.83904 7.29714 6.62751 7.53763 6.58203C7.5132 6.64199 7.49985 6.7076 7.49985 6.77615C7.49985 7.06348 7.73288 7.29651 8.02021 7.29651C8.0537 7.29651 8.0865 7.29334 8.11818 7.28701Z" fill="#C5BEC6"/>
    <path d="M5.19199 2.04755C5.38566 2.04755 5.54267 1.89054 5.54267 1.69687C5.54267 1.5032 5.38566 1.34619 5.19199 1.34619C4.99831 1.34619 4.84131 1.5032 4.84131 1.69687C4.84131 1.89054 4.99831 2.04755 5.19199 2.04755Z" fill="#D4CFD5"/>
    <path d="M4.95452 5.10191C5.17319 5.10191 5.35045 4.92465 5.35045 4.70599C5.35045 4.48732 5.17319 4.31006 4.95452 4.31006C4.73586 4.31006 4.55859 4.48732 4.55859 4.70599C4.55859 4.92465 4.73586 5.10191 4.95452 5.10191Z" fill="#D4CFD5"/>
    <path d="M1.3344 6.27818C1.51558 6.27818 1.66246 6.1313 1.66246 5.95012C1.66246 5.76895 1.51558 5.62207 1.3344 5.62207C1.15322 5.62207 1.00635 5.76895 1.00635 5.95012C1.00635 6.1313 1.15322 6.27818 1.3344 6.27818Z" fill="#C5BEC6"/>
    <path d="M8.25774 5.66734C8.43892 5.66734 8.5858 5.52046 8.5858 5.33928C8.5858 5.15811 8.43892 5.01123 8.25774 5.01123C8.07656 5.01123 7.92969 5.15811 7.92969 5.33928C7.92969 5.52046 8.07656 5.66734 8.25774 5.66734Z" fill="#D4CFD5"/>
    <path d="M2.90705 2.75648C2.99864 2.75648 3.07289 2.68223 3.07289 2.59064C3.07289 2.49905 2.99864 2.4248 2.90705 2.4248C2.81546 2.4248 2.74121 2.49905 2.74121 2.59064C2.74121 2.68223 2.81546 2.75648 2.90705 2.75648Z" fill="#D4CFD5"/>
    <path d="M2.65802 7.32655C2.74961 7.32655 2.82386 7.2523 2.82386 7.16071C2.82386 7.06912 2.74961 6.99487 2.65802 6.99487C2.56644 6.99487 2.49219 7.06912 2.49219 7.16071C2.49219 7.2523 2.56644 7.32655 2.65802 7.32655Z" fill="#C5BEC6"/>
    <path d="M7.02424 8.41248C7.11582 8.41248 7.19007 8.33824 7.19007 8.24665C7.19007 8.15506 7.11582 8.08081 7.02424 8.08081C6.93265 8.08081 6.8584 8.15506 6.8584 8.24665C6.8584 8.33824 6.93265 8.41248 7.02424 8.41248Z" fill="#D4CFD5"/>
    <path d="M8.92511 4.31751C9.0167 4.31751 9.09095 4.24327 9.09095 4.15168C9.09095 4.06009 9.0167 3.98584 8.92511 3.98584C8.83352 3.98584 8.75928 4.06009 8.75928 4.15168C8.75928 4.24327 8.83352 4.31751 8.92511 4.31751Z" fill="#D4CFD5"/>
    <path d="M6.57209 1.80604C6.66368 1.80604 6.73792 1.73179 6.73792 1.6402C6.73792 1.54861 6.66368 1.47437 6.57209 1.47437C6.4805 1.47437 6.40625 1.54861 6.40625 1.6402C6.40625 1.73179 6.4805 1.80604 6.57209 1.80604Z" fill="#D4CFD5"/>
    <path d="M9.20141 2.2883C8.69272 1.50167 7.97704 0.874977 7.13179 0.475996C7.04706 0.435996 6.94591 0.47224 6.90593 0.557014C6.86591 0.641765 6.9022 0.742896 6.98695 0.782896C8.61109 1.54957 9.66055 3.20486 9.66055 4.99998C9.66055 5.43315 9.60118 5.86204 9.48412 6.27473C9.45853 6.36489 9.51091 6.45871 9.60105 6.48428C9.61654 6.48867 9.63211 6.49077 9.64745 6.49077C9.72143 6.49077 9.78942 6.44204 9.81059 6.36735C9.93623 5.92452 9.99992 5.46448 9.99992 4.99998C9.99992 4.03376 9.72381 3.09609 9.20141 2.2883Z" fill="black"/>
    <path d="M9.44 6.91287C9.35543 6.87276 9.25414 6.90885 9.21401 6.99353C8.44613 8.61373 6.79204 9.66063 5 9.66063C2.43011 9.66063 0.339367 7.56989 0.339367 5C0.339367 2.43011 2.43011 0.339367 5 0.339367C5.42656 0.339367 5.84907 0.396923 6.25586 0.510475C6.34622 0.535724 6.43973 0.482919 6.46491 0.39267C6.49011 0.302398 6.43735 0.208801 6.34711 0.18362C5.91061 0.0617647 5.45738 0 5 0C3.66446 0 2.40885 0.52009 1.46446 1.46446C0.520068 2.40882 0 3.66446 0 5C0 6.33554 0.52009 7.59115 1.46446 8.53554C2.40882 9.47993 3.66446 10 5 10C5.96484 10 6.90143 9.72462 7.70846 9.20358C8.4943 8.69622 9.12097 7.98226 9.52068 7.13887C9.56082 7.05419 9.52468 6.95301 9.44 6.91287Z" fill="black"/>
    <path d="M3.76723 4.27599C3.76723 3.70837 3.30544 3.24658 2.73781 3.24658C2.49035 3.24658 2.25116 3.33568 2.06428 3.49749C1.99342 3.55882 1.98573 3.66599 2.04707 3.73683C2.10842 3.80771 2.21557 3.81534 2.28641 3.75405C2.41162 3.64565 2.57191 3.58595 2.73779 3.58595C3.11827 3.58595 3.42784 3.8955 3.42784 4.27599C3.42784 4.65649 3.11827 4.96604 2.73779 4.96604C2.38261 4.96604 2.08752 4.70009 2.05139 4.3474C2.04184 4.25418 1.95881 4.18615 1.86528 4.19588C1.77207 4.20543 1.70424 4.28873 1.71379 4.38197C1.76772 4.90841 2.20795 5.30541 2.73781 5.30541C3.30544 5.30541 3.76723 4.84362 3.76723 4.27599Z" fill="black"/>
    <path d="M4.8756 8.57468C4.83895 8.57468 4.80221 8.57181 4.76637 8.56611C4.67379 8.55133 4.58685 8.61455 4.57219 8.70708C4.5575 8.79964 4.62063 8.88658 4.71316 8.90127C4.76653 8.90975 4.82117 8.91403 4.8756 8.91403C5.44323 8.91403 5.90502 8.45224 5.90502 7.88461C5.90502 7.31699 5.44323 6.85522 4.8756 6.85522C4.30798 6.85522 3.84619 7.31701 3.84619 7.88464C3.84619 8.04319 3.88133 8.19534 3.9506 8.33685C3.99183 8.42099 4.09343 8.45581 4.17762 8.41464C4.2618 8.37344 4.29662 8.27179 4.2554 8.18762C4.20904 8.09296 4.18554 7.99104 4.18554 7.88464C4.18554 7.50414 4.49511 7.19459 4.87558 7.19459C5.25606 7.19459 5.56563 7.50414 5.56563 7.88464C5.56563 8.26513 5.25608 8.57468 4.8756 8.57468Z" fill="black"/>
    <path d="M7.25108 2.4209C6.87061 2.4209 6.56104 2.73045 6.56104 3.11094C6.56104 3.49144 6.87061 3.80099 7.25108 3.80099C7.63156 3.80099 7.94113 3.49144 7.94113 3.11094C7.94113 2.73045 7.63156 2.4209 7.25108 2.4209ZM7.25108 3.46162C7.05771 3.46162 6.9004 3.30431 6.9004 3.11094C6.9004 2.91757 7.05771 2.76026 7.25108 2.76026C7.44445 2.76026 7.60176 2.91757 7.60176 3.11094C7.60176 3.30431 7.44445 3.46162 7.25108 3.46162Z" fill="black"/>
    <path d="M8.32589 7.09288C8.32589 6.71238 8.01632 6.40283 7.63585 6.40283C7.25537 6.40283 6.9458 6.71238 6.9458 7.09288C6.9458 7.47338 7.25537 7.78292 7.63585 7.78292C8.01632 7.78292 8.32589 7.47338 8.32589 7.09288ZM7.28517 7.09288C7.28517 6.89951 7.44248 6.7422 7.63585 6.7422C7.82922 6.7422 7.98652 6.89951 7.98652 7.09288C7.98652 7.28625 7.82922 7.44356 7.63585 7.44356C7.44248 7.44356 7.28517 7.28625 7.28517 7.09288Z" fill="black"/>
    <path d="M5.7126 1.69688C5.7126 1.40995 5.47918 1.17651 5.19224 1.17651C4.90529 1.17651 4.67188 1.40995 4.67188 1.69688C4.67188 1.9838 4.90529 2.21724 5.19224 2.21724C5.47918 2.21724 5.7126 1.9838 5.7126 1.69688ZM5.01124 1.69688C5.01124 1.59708 5.09244 1.51588 5.19224 1.51588C5.29203 1.51588 5.37323 1.59708 5.37323 1.69688C5.37323 1.79667 5.29203 1.87787 5.19224 1.87787C5.09244 1.87787 5.01124 1.79667 5.01124 1.69688Z" fill="black"/>
    <path d="M4.38916 4.70599C4.38916 5.01787 4.64289 5.2716 4.95477 5.2716C5.26665 5.2716 5.52038 5.01787 5.52038 4.70599C5.52038 4.39411 5.26665 4.14038 4.95477 4.14038C4.64289 4.14038 4.38916 4.39411 4.38916 4.70599ZM4.95477 4.47975C5.07952 4.47975 5.18102 4.58124 5.18102 4.70599C5.18102 4.83074 5.07952 4.93224 4.95477 4.93224C4.83002 4.93224 4.72853 4.83074 4.72853 4.70599C4.72853 4.58124 4.83002 4.47975 4.95477 4.47975Z" fill="black"/>
    <path d="M1.33465 5.45239C1.06019 5.45239 0.836914 5.67567 0.836914 5.95013C0.836914 6.22459 1.06019 6.44787 1.33465 6.44787C1.60911 6.44787 1.83239 6.22459 1.83239 5.95013C1.83239 5.67567 1.60911 5.45239 1.33465 5.45239ZM1.33465 6.1085C1.24734 6.1085 1.17628 6.03746 1.17628 5.95013C1.17628 5.8628 1.24734 5.79176 1.33465 5.79176C1.42196 5.79176 1.49302 5.8628 1.49302 5.95013C1.49302 6.03746 1.42196 6.1085 1.33465 6.1085Z" fill="black"/>
    <path d="M8.75573 5.33929C8.75573 5.06483 8.53245 4.84155 8.25799 4.84155C7.98353 4.84155 7.76025 5.06483 7.76025 5.33929C7.76025 5.61375 7.98353 5.83703 8.25799 5.83703C8.53245 5.83703 8.75573 5.61375 8.75573 5.33929ZM8.25799 5.49766C8.17068 5.49766 8.09962 5.42662 8.09962 5.33929C8.09962 5.25196 8.17068 5.18092 8.25799 5.18092C8.3453 5.18092 8.41636 5.25196 8.41636 5.33929C8.41636 5.42662 8.3453 5.49766 8.25799 5.49766Z" fill="black"/>
    <path d="M2.90739 2.76008C3.00105 2.76008 3.07698 2.68415 3.07698 2.59049C3.07698 2.49683 3.00105 2.4209 2.90739 2.4209C2.81372 2.4209 2.73779 2.49683 2.73779 2.59049C2.73779 2.68415 2.81372 2.76008 2.90739 2.76008Z" fill="black"/>
    <path d="M6.57242 1.80989C6.66609 1.80989 6.74202 1.73396 6.74202 1.6403C6.74202 1.54663 6.66609 1.4707 6.57242 1.4707C6.47876 1.4707 6.40283 1.54663 6.40283 1.6403C6.40283 1.73396 6.47876 1.80989 6.57242 1.80989Z" fill="black"/>
    <path d="M8.92545 4.32136C9.01912 4.32136 9.09505 4.24543 9.09505 4.15177C9.09505 4.05811 9.01912 3.98218 8.92545 3.98218C8.83179 3.98218 8.75586 4.05811 8.75586 4.15177C8.75586 4.24543 8.83179 4.32136 8.92545 4.32136Z" fill="black"/>
    <path d="M7.02457 8.41633C7.11824 8.41633 7.19417 8.3404 7.19417 8.24674C7.19417 8.15308 7.11824 8.07715 7.02457 8.07715C6.93091 8.07715 6.85498 8.15308 6.85498 8.24674C6.85498 8.3404 6.93091 8.41633 7.02457 8.41633Z" fill="black"/>
    <path d="M2.65836 7.33015C2.75203 7.33015 2.82796 7.25422 2.82796 7.16056C2.82796 7.0669 2.75203 6.99097 2.65836 6.99097C2.5647 6.99097 2.48877 7.0669 2.48877 7.16056C2.48877 7.25422 2.5647 7.33015 2.65836 7.33015Z" fill="black"/>
</svg>
