<svg width="50" height="50" viewBox="0 0 10 10"
    xmlns="http://www.w3.org/2000/svg">
    <path d="M5.00004 8.15242C6.74105 8.15242 8.15242 6.74105 8.15242 5.00004C8.15242 3.25902 6.74105 1.84766 5.00004 1.84766C3.25902 1.84766 1.84766 3.25902 1.84766 5.00004C1.84766 6.74105 3.25902 8.15242 5.00004 8.15242Z" fill="#FEDB41"/>
    <path d="M7.51023 5.14054C7.47303 5.1405 7.43736 5.1257 7.41106 5.0994C7.38475 5.07309 7.36995 5.03742 7.36991 5.00022C7.36927 4.37199 7.11943 3.76967 6.6752 3.32545C6.23097 2.88122 5.62866 2.63137 5.00043 2.63073C4.96315 2.63073 4.92739 2.61593 4.90103 2.58957C4.87467 2.5632 4.85986 2.52745 4.85986 2.49017C4.85986 2.45289 4.87467 2.41714 4.90103 2.39078C4.92739 2.36442 4.96315 2.34961 5.00043 2.34961C5.70318 2.35035 6.37694 2.62985 6.87387 3.12678C7.37079 3.6237 7.65029 4.29746 7.65104 5.00022C7.65102 5.01868 7.64736 5.03696 7.64027 5.05401C7.63318 5.07105 7.6228 5.08653 7.60972 5.09957C7.59664 5.1126 7.58113 5.12293 7.56405 5.12996C7.54698 5.13699 7.5287 5.14058 7.51023 5.14054Z" fill="#FEA832"/>
    <path d="M4.99981 1.20506C5.22881 1.20533 5.45732 1.22633 5.68254 1.2678C5.68559 1.22402 5.6876 1.17944 5.6876 1.13462C5.68752 0.508034 4.99981 0 4.99981 0C4.99981 0 4.31201 0.508034 4.31201 1.13462C4.31201 1.17976 4.3141 1.22402 4.31715 1.2678C4.54234 1.22633 4.77083 1.20534 4.99981 1.20506Z" fill="#FEA832"/>
    <path d="M4.99972 8.79483C5.22872 8.79455 5.45723 8.77358 5.68246 8.73218C5.68551 8.77587 5.68752 8.82013 5.68752 8.86527C5.68752 9.49178 4.99981 9.99989 4.99981 9.99989C4.99981 9.99989 4.31201 9.49194 4.31201 8.86527C4.31201 8.82013 4.3141 8.77587 4.31715 8.73218C4.54233 8.77357 4.77078 8.79454 4.99972 8.79483Z" fill="#FEA832"/>
    <path d="M7.68332 2.31665C7.84499 2.47879 7.99169 2.65519 8.12163 2.84372C8.15481 2.81496 8.1875 2.78508 8.21939 2.7532C8.66252 2.31006 8.53537 1.4646 8.53537 1.4646C8.53537 1.4646 7.68991 1.33769 7.24677 1.78058C7.21464 1.81271 7.18501 1.84484 7.15625 1.87833C7.34478 2.00827 7.52118 2.15497 7.68332 2.31665Z" fill="#FEA832"/>
    <path d="M2.31622 7.68332C2.47832 7.84503 2.65473 7.99173 2.84329 8.12163C2.81454 8.15481 2.78466 8.1875 2.75277 8.21939C2.30963 8.66252 1.46417 8.53537 1.46417 8.53537C1.46417 8.53537 1.33702 7.68991 1.78015 7.24677C1.81228 7.21464 1.84441 7.18501 1.87791 7.15625C2.00783 7.34479 2.15453 7.5212 2.31622 7.68332Z" fill="#FEA832"/>
    <path d="M8.79507 5.00013C8.79479 5.22913 8.77382 5.45764 8.73242 5.68287C8.77612 5.68592 8.82037 5.68801 8.86551 5.68801C9.49202 5.68801 10.0001 5.00021 10.0001 5.00021C10.0001 5.00021 9.4921 4.3125 8.86551 4.3125C8.82037 4.3125 8.77612 4.31451 8.73242 4.31756C8.77381 4.54273 8.79478 4.77119 8.79507 5.00013Z" fill="#FEA832"/>
    <path d="M1.20506 5.00021C1.20534 5.22921 1.22631 5.45772 1.26771 5.68295C1.22402 5.686 1.17936 5.68809 1.13462 5.68809C0.508034 5.68777 0 5.00021 0 5.00021C0 5.00021 0.508034 4.3125 1.13462 4.3125C1.17976 4.3125 1.22402 4.31451 1.26771 4.31756C1.22632 4.54276 1.20535 4.77124 1.20506 5.00021Z" fill="#FEA832"/>
    <path d="M7.68332 7.68332C7.52118 7.84499 7.34478 7.99169 7.15625 8.12163C7.18501 8.15481 7.21488 8.1875 7.24677 8.21939C7.68991 8.66252 8.53537 8.53537 8.53537 8.53537C8.53537 8.53537 8.66252 7.68991 8.21939 7.24677C8.18726 7.21464 8.15513 7.18501 8.12163 7.15625C7.99171 7.34479 7.84501 7.5212 7.68332 7.68332Z" fill="#FEA832"/>
    <path d="M2.31622 2.31665C2.15455 2.47879 2.00785 2.65519 1.87791 2.84372C1.84473 2.81496 1.81204 2.78508 1.78015 2.7532C1.33702 2.31006 1.46417 1.4646 1.46417 1.4646C1.46417 1.4646 2.30963 1.33769 2.75277 1.78058C2.7849 1.81271 2.81454 1.84484 2.84329 1.87833C2.65475 2.00825 2.47834 2.15496 2.31622 2.31665Z" fill="#FEA832"/>
</svg>
